<svg xmlns="http://www.w3.org/2000/svg" xmlns:xlink="http://www.w3.org/1999/xlink" width="46" height="47" viewBox="0 0 46 47">
  <defs>
    <circle id="camera--dark-b" cx="25" cy="25" r="21.484"/>
    <filter id="camera--dark-a" width="114%" height="114%" x="-7%" y="-4.7%" filterUnits="objectBoundingBox">
      <feOffset dy="1" in="SourceAlpha" result="shadowOffsetOuter1"/>
      <feGaussianBlur in="shadowOffsetOuter1" result="shadowBlurOuter1" stdDeviation=".5"/>
      <feColorMatrix in="shadowBlurOuter1" result="shadowMatrixOuter1" values="0 0 0 0 0   0 0 0 0 0   0 0 0 0 0  0 0 0 0.1 0"/>
      <feOffset in="SourceAlpha" result="shadowOffsetOuter2"/>
      <feGaussianBlur in="shadowOffsetOuter2" result="shadowBlurOuter2" stdDeviation=".5"/>
      <feColorMatrix in="shadowBlurOuter2" result="shadowMatrixOuter2" values="0 0 0 0 0   0 0 0 0 0   0 0 0 0 0  0 0 0 0.05 0"/>
      <feMerge>
        <feMergeNode in="shadowMatrixOuter1"/>
        <feMergeNode in="shadowMatrixOuter2"/>
      </feMerge>
    </filter>
  </defs>
  <g fill="none" fill-rule="evenodd" transform="translate(-2 -2)">
    <use fill="#000" filter="url(#camera--dark-a)" xlink:href="#camera--dark-b"/>
    <use fill="#344A5E" xlink:href="#camera--dark-b"/>
    <path fill="#FFF" fill-rule="nonzero" d="M35.3217574,19.1937838 C34.7547343,18.6429561 34.0707879,18.367465 33.2694414,18.367465 L30.7294943,18.367465 L30.1513111,16.8691857 C30.0076192,16.5093379 29.7450578,16.1989618 29.3631105,15.9380962 C28.9813222,15.6773464 28.5901609,15.546875 28.1894677,15.546875 L22.3837666,15.546875 C21.9831132,15.546875 21.5918725,15.6773464 21.2100841,15.9380962 C20.8282957,16.1989618 20.5656946,16.5093379 20.4220424,16.8691857 L19.8437798,18.367465 L17.3038327,18.367465 C16.5024067,18.367465 15.8184206,18.6429561 15.2513975,19.1937838 C14.6844936,19.7446501 14.4010417,20.4093172 14.4010417,21.1879392 L14.4010417,31.0596569 C14.4010417,31.8383176 14.6844936,32.5030618 15.2513975,33.0537738 C15.8184206,33.6047173 16.5024465,33.8802083 17.3038327,33.8802083 L33.2691634,33.8802083 C34.0705099,33.8802083 34.7544166,33.6047173 35.3214794,33.0537738 C35.8883436,32.5030618 36.1718749,31.8383176 36.1718749,31.0596569 L36.1718749,21.1879392 C36.1720338,20.4093172 35.8885024,19.7446501 35.3217574,19.1937838 Z M28.8753206,29.6109653 C27.8812728,30.5768626 26.6851112,31.0599271 25.2865179,31.0599271 C23.8879246,31.0599271 22.6918424,30.5768626 21.6977152,29.6109653 C20.703588,28.6452223 20.2066237,27.482711 20.2066237,26.1240875 C20.2066237,24.7650395 20.7037468,23.6029141 21.6977152,22.6369782 C22.6917232,21.6710423 23.8879643,21.1881708 25.2865179,21.1881708 C26.6850715,21.1881708 27.8812728,21.671158 28.8753206,22.6369782 C29.869408,23.6027983 30.3664518,24.7650395 30.3664518,26.1240875 C30.3664518,27.482711 29.8694478,28.6451065 28.8753206,29.6109653 Z M25.2865179,22.9507887 C24.3869144,22.9507887 23.6177377,23.2611261 22.9789482,23.8818782 C22.3401586,24.5025531 22.0207638,25.2498018 22.0207638,26.1240875 C22.0207638,26.9980258 22.3401586,27.7453904 22.9789482,28.3660653 C23.6177377,28.9866244 24.3868747,29.2969618 25.2865179,29.2969618 C26.1860022,29.2969618 26.9552583,28.9866244 27.5940479,28.3660653 C28.2328374,27.7453904 28.5522719,26.9980644 28.5522719,26.1240875 C28.5522719,25.2498404 28.2328374,24.5025917 27.5940479,23.8818782 C26.955298,23.2611647 26.1860022,22.9507887 25.2865179,22.9507887 Z"/>
  </g>
</svg>
