<svg xmlns="http://www.w3.org/2000/svg" width="48" height="48" viewBox="0 0 48 48">
  <g fill="none" fill-rule="evenodd" transform="translate(4 4)">
    <circle cx="20" cy="20" r="19.643" fill="#344A5E"/>
    <path fill="#FFF" fill-rule="nonzero" d="M29.4370353,14.6914595 C28.9186143,14.1878455 28.2932918,13.935968 27.5606321,13.935968 L25.2383948,13.935968 L24.7097701,12.5661127 C24.5783947,12.2371089 24.3383385,11.9533365 23.9891296,11.7148308 C23.640066,11.476431 23.2824328,11.3571429 22.9160848,11.3571429 L17.6080152,11.3571429 C17.2417035,11.3571429 16.8839977,11.476431 16.534934,11.7148308 C16.1858704,11.9533365 15.9457779,12.2371089 15.8144388,12.5661127 L15.2857415,13.935968 L12.9635042,13.935968 C12.2307719,13.935968 11.6054131,14.1878455 11.086992,14.6914595 C10.5686799,15.1951087 10.3095238,15.8028043 10.3095238,16.5146873 L10.3095238,25.5402578 C10.3095238,26.2521761 10.5686799,26.8599422 11.086992,27.3634503 C11.6054131,27.8671701 12.2308082,28.1190476 12.9635042,28.1190476 L27.5603779,28.1190476 C28.2930376,28.1190476 28.9183238,27.8671701 29.4367811,27.3634503 C29.955057,26.8599422 30.2142857,26.2521761 30.2142857,25.5402578 L30.2142857,16.5146873 C30.2144309,15.8028043 29.9552022,15.1951087 29.4370353,14.6914595 Z M23.5431502,24.2157397 C22.6343066,25.0988458 21.5406731,25.5405047 20.2619592,25.5405047 C18.9832453,25.5405047 17.8896844,25.0988458 16.9807682,24.2157397 C16.0718519,23.3327747 15.6174845,22.2699072 15.6174845,21.0277371 C15.6174845,19.7851789 16.0719971,18.7226643 16.9807682,17.8395229 C17.8895755,16.9563815 18.9832816,16.514899 20.2619592,16.514899 C21.5406368,16.514899 22.6343066,16.9564873 23.5431502,17.8395229 C24.4520302,18.7225585 24.9064702,19.7851789 24.9064702,21.0277371 C24.9064702,22.2699072 24.4520665,23.3326688 23.5431502,24.2157397 Z M20.2619592,18.1264354 C19.4394646,18.1264354 18.7362173,18.4101725 18.1521812,18.9777172 C17.568145,19.5451914 17.2761269,20.2283903 17.2761269,21.0277371 C17.2761269,21.8267665 17.568145,22.5100712 18.1521812,23.0775454 C18.7362173,23.6449137 19.4394283,23.9286508 20.2619592,23.9286508 C21.0843449,23.9286508 21.7876647,23.6449137 22.3717009,23.0775454 C22.9557371,22.5100712 23.2477915,21.8268018 23.2477915,21.0277371 C23.2477915,20.2284255 22.9557371,19.5452267 22.3717009,18.9777172 C21.7877011,18.4102077 21.0843449,18.1264354 20.2619592,18.1264354 Z"/>
  </g>
</svg>
