<svg xmlns="http://www.w3.org/2000/svg" width="14" height="16" viewBox="0 0 14 16">
  <g fill="none" transform="translate(-1)">
    <path fill="#F1543F" stroke="#FFF" stroke-opacity=".9" stroke-width="2.286" d="M13.7003922,5.67009524 C13.2313725,4.53638095 11.8243137,4.02438095 10.7058824,4.49980952 C10.8501961,3.29295238 9.94823529,2.04952381 8.75764706,1.9032381 C7.56705882,1.75695238 6.41254902,2.74438095 6.26823529,3.9512381 C5.29411765,3.21980952 3.81490196,3.36609524 3.09333333,4.35352381 C2.37176471,5.34095238 2.62431373,6.84038095 3.59843137,7.57180952 C2.48,8.0472381 1.86666667,9.43695238 2.33568627,10.5706667 C2.80470588,11.704381 4.21176471,12.216381 5.33019608,11.7409524 C5.18588235,12.9478095 6.08784314,14.1912381 7.27843137,14.3375238 C8.46901961,14.4838095 9.62352941,13.496381 9.76784314,12.2895238 C10.7419608,13.0209524 12.2211765,12.8746667 12.9427451,11.8872381 C13.6643137,10.8998095 13.4117647,9.40038095 12.4376471,8.66895238 C13.5560784,8.19352381 14.1694118,6.7672381 13.7003922,5.67009524 Z"/>
    <g transform="translate(2.133 1.867)">
      <path fill="#FF7058" d="M11.5670588,3.80342857 C11.0980392,2.66971429 9.69098039,2.15771429 8.57254902,2.63314286 C8.71686275,1.42628571 7.81490196,0.182857143 6.62431373,0.0365714286 C5.43372549,-0.109714286 4.27921569,0.877714286 4.13490196,2.08457143 C3.16078431,1.35314286 1.68156863,1.49942857 0.96,2.48685714 C0.238431373,3.47428571 0.490980392,4.97371429 1.46509804,5.70514286 C0.346666667,6.18057143 -0.266666667,7.57028571 0.202352941,8.704 C0.671372549,9.83771429 2.07843137,10.3497143 3.19686275,9.87428571 C3.05254902,11.0811429 3.9545098,12.3245714 5.14509804,12.4708571 C6.33568627,12.6171429 7.49019608,11.6297143 7.6345098,10.4228571 C8.60862745,11.1542857 10.0878431,11.008 10.8094118,10.0205714 C11.5309804,9.03314286 11.2784314,7.53371429 10.3043137,6.80228571 C11.4227451,6.32685714 12.0360784,4.90057143 11.5670588,3.80342857 Z"/>
      <ellipse cx="5.867" cy="6.254" fill="#FFF" rx="2.489" ry="2.523"/>
      <ellipse cx="5.867" cy="6.254" fill="#FF7058" rx="1.01" ry="1.024"/>
    </g>
  </g>
</svg>
