<svg xmlns="http://www.w3.org/2000/svg" width="60" height="60" viewBox="0 0 60 60">
  <g fill="none" transform="translate(11 11)">
    <path fill="#FF7058" d="M5.54166667,5.54166667 C-1.80104167,12.884375 -1.80104167,24.9375 5.54166667,32.2802083 C12.884375,39.6229167 24.9375,39.6229167 32.2802083,32.2802083 C39.6229167,24.9375 39.6229167,12.884375 32.2802083,5.54166667 C24.9375,-1.80104167 13.0229167,-1.80104167 5.54166667,5.54166667 Z"/>
    <g fill="#FFF" fill-opacity=".9" transform="translate(7.719 7.719)">
      <path d="M19.5739583,8.21354167 L2.94895833,8.21354167 C1.28645833,8.21354167 0.0395833333,9.59895833 0.0395833333,11.1229167 C0.0395833333,12.646875 1.425,14.0322917 2.94895833,14.0322917 L19.4354167,14.0322917 C21.0979167,14.0322917 22.3447917,12.646875 22.3447917,11.1229167 C22.3447917,9.59895833 21.0979167,8.21354167 19.5739583,8.21354167 Z"/>
      <path d="M14.1708333,19.5739583 L14.1708333,3.0875 C14.1708333,1.425 12.7854167,0.178125 11.2614583,0.178125 C9.59895833,0.178125 8.35208333,1.56354167 8.35208333,3.0875 L8.35208333,19.5739583 C8.35208333,21.2364583 9.7375,22.4833333 11.2614583,22.4833333 C12.9239583,22.4833333 14.1708333,21.0979167 14.1708333,19.5739583 Z"/>
    </g>
  </g>
</svg>
