<svg xmlns="http://www.w3.org/2000/svg" width="60" height="60" viewBox="0 0 60 60">
  <g fill="none" transform="translate(7 6)">
    <path fill="#F3705A" d="M44.3622995,14.5663222 C42.5635027,10.2244377 37.1671123,8.26358663 32.8776738,10.0843769 C33.4311497,5.46237082 29.9719251,0.700303951 25.4057487,0.14006079 C20.8395722,-0.420182371 16.4117647,3.36145897 15.8582888,7.98346505 C12.1223262,5.18224924 6.44919786,5.7424924 3.68181818,9.52413374 C0.914438503,13.3057751 1.88302139,19.0482675 5.61898396,21.8494833 C1.32954545,23.6702736 -1.02272727,28.9925836 0.776069519,33.3344681 C2.57486631,37.6763526 7.97125668,39.6372036 12.2606952,37.8164134 C11.7072193,42.4384195 15.1664439,47.2004863 19.7326203,47.7607295 C24.2987968,48.3209726 28.7266043,44.5393313 29.2800802,39.9173252 C33.0160428,42.718541 38.6891711,42.1582979 41.4565508,38.3766565 C44.2239305,34.5950152 43.2553476,28.8525228 39.519385,26.051307 C43.8088235,24.2305167 46.1610963,18.7681459 44.3622995,14.5663222 Z"/>
    <ellipse cx="22.5" cy="23.95" fill="#F3F3F3" rx="9.547" ry="9.664"/>
    <ellipse cx="22.5" cy="23.95" fill="#55C0EB" rx="3.874" ry="3.922"/>
  </g>
</svg>
