<svg xmlns="http://www.w3.org/2000/svg" width="60" height="60" viewBox="0 0 60 60">
  <g fill="none" transform="translate(11 11)">
    <path fill="#F3705A" d="M36.5470588,29.7294118 L28.0529412,21.2352941 L21.2352941,28.0529412 L29.7294118,36.5470588 C31.6294118,38.4470588 34.6470588,38.4470588 36.5470588,36.5470588 C38.4470588,34.6470588 38.4470588,31.6294118 36.5470588,29.7294118 Z"/>
    <path fill="#F05540" d="M21.2352941,28.0529412 L23.0235294,29.8411765 C24.4764706,29.0588235 25.8176471,28.1647059 26.9352941,26.9352941 C28.1647059,25.7058824 29.0588235,24.3647059 29.8411765,23.0235294 L28.0529412,21.2352941 L21.2352941,28.0529412 Z"/>
    <circle cx="15.647" cy="15.647" r="12.853" fill="#8AD7F8"/>
    <path fill="#415A6B" d="M25.9294118,25.9294118 C20.2294118,31.6294118 10.9529412,31.6294118 5.25294118,25.9294118 C-0.447058824,20.2294118 -0.447058824,10.9529412 5.25294118,5.25294118 C10.9529412,-0.447058824 20.2294118,-0.447058824 25.9294118,5.25294118 C31.6294118,10.9529412 31.6294118,20.2294118 25.9294118,25.9294118 Z M7.82352941,7.82352941 C3.57647059,12.0705882 3.57647059,19.1117647 7.82352941,23.3588235 C12.0705882,27.6058824 19.1117647,27.6058824 23.3588235,23.3588235 C27.6058824,19.1117647 27.6058824,12.0705882 23.3588235,7.82352941 C19.1117647,3.57647059 12.1823529,3.57647059 7.82352941,7.82352941 Z"/>
    <ellipse cx="15.647" cy="9.835" fill="#FFF" rx="3.576" ry="2.124"/>
  </g>
</svg>
