<svg xmlns="http://www.w3.org/2000/svg" width="60" height="60" viewBox="0 0 60 60">
  <g fill="none" transform="translate(5 15)">
    <g transform="translate(4.688)">
      <path fill="#FF7058" d="M15 17.7222222L15 28.3555556C20.78125 28.3555556 25.3125 23.5222222 25.3125 17.7222222L15 17.7222222zM31.25 5.31666667C30.78125 3.54444444 30.3125 1.93333333 29.53125.322222222 27.8125.161111111 26.09375.161111111 24.375.483333333 15.3125 2.57777778 15.78125 9.66666667 17.65625 14.3388889 17.96875 15.3055556 18.125 16.4333333 18.28125 17.5611111 19.21875 17.2388889 20.3125 17.0777778 21.25 16.9166667 26.09375 16.7555556 32.65625 14.6611111 31.25 5.31666667zM41.40625 15.1444444C42.96875 13.5333333 44.0625 11.2777778 44.0625 8.86111111L44.0625 6.28333333 41.5625 6.28333333C37.65625 6.28333333 34.375 9.18333333 33.4375 12.8888889L33.28125 12.8888889 33.28125 14.8222222 33.28125 15.4666667 33.28125 17.4 33.4375 17.4C34.375 21.2666667 37.65625 24.0055556 41.5625 24.0055556L44.0625 24.0055556 44.0625 21.4277778C44.0625 18.85 43.125 16.7555556 41.40625 15.1444444z"/>
      <path fill="#FFD15C" d="M36.71875,12.0833333 C27.1875,2.25555556 11.5625,2.25555556 2.03125,12.0833333 L0.78125,13.3722222 L2.5,15.1444444 L0.78125,16.9166667 L2.03125,18.2055556 C11.5625,28.0333333 27.1875,28.0333333 36.71875,18.2055556 L39.6875,15.1444444 L36.71875,12.0833333 Z"/>
      <path fill="#FF7058" d="M9.375,8.7 C9.375,8.7 9.53125,8.86111111 9.84375,9.02222222 C10,9.18333333 10.15625,9.34444444 10.3125,9.50555556 C10.46875,9.66666667 10.78125,9.98888889 10.9375,10.3111111 C11.09375,10.6333333 11.40625,10.9555556 11.5625,11.2777778 C11.71875,11.6 11.875,12.0833333 12.03125,12.4055556 C12.1875,12.8888889 12.34375,13.2111111 12.34375,13.6944444 C12.5,14.1777778 12.5,14.6611111 12.5,15.1444444 C12.5,15.6277778 12.5,16.1111111 12.34375,16.5944444 C12.34375,17.0777778 12.1875,17.5611111 12.03125,17.8833333 C11.875,18.3666667 11.71875,18.6888889 11.5625,19.0111111 C11.40625,19.3333333 11.25,19.6555556 10.9375,19.9777778 C10.78125,20.3 10.46875,20.4611111 10.3125,20.6222222 C10.15625,20.7833333 10,20.9444444 9.84375,21.1055556 C9.53125,21.4277778 9.375,21.4277778 9.375,21.4277778 C9.375,21.4277778 9.53125,21.2666667 9.6875,20.9444444 C9.84375,20.6222222 10.15625,20.1388889 10.46875,19.4944444 C10.625,19.1722222 10.78125,18.85 10.78125,18.5277778 C10.9375,18.2055556 10.9375,17.7222222 11.09375,17.4 C11.09375,17.0777778 11.25,16.5944444 11.25,16.2722222 C11.25,15.7888889 11.25,15.4666667 11.40625,14.9833333 C11.40625,14.1777778 11.25,13.3722222 11.09375,12.5666667 C10.9375,12.2444444 10.9375,11.7611111 10.78125,11.4388889 C10.625,11.1166667 10.46875,10.7944444 10.46875,10.4722222 C10.15625,9.82777778 10,9.34444444 9.6875,9.02222222 C9.53125,8.86111111 9.375,8.7 9.375,8.7 Z"/>
      <ellipse cx="7.656" cy="13.05" fill="#FFF" rx="1.406" ry="1.45"/>
      <ellipse cx="7.656" cy="13.05" fill="#40596B" rx="1" ry="1"/>
    </g>
    <ellipse cx="2.656" cy="9.828" fill="#84DBFF" rx="2.031" ry="2.094"/>
    <ellipse cx="6.094" cy="5.8" fill="#84DBFF" rx="1.563" ry="1.611"/>
    <ellipse cx="2.813" cy="2.256" fill="#84DBFF" rx="1.094" ry="1.128"/>
  </g>
</svg>
