<svg xmlns="http://www.w3.org/2000/svg" width="60" height="60" viewBox="0 0 60 60">
  <g fill="none" transform="translate(11 11)">
    <circle cx="19.19" cy="19.19" r="16.34"/>
    <path fill="#66C6B9" d="M11.685,27.265 C11.495,27.265 11.4,27.17 11.21,27.075 C10.925,26.79 10.925,26.41 11.21,26.22 L21.85,15.58 C22.135,15.295 22.515,15.295 22.705,15.58 C22.99,15.865 22.99,16.245 22.705,16.435 L12.16,27.075 C11.97,27.17 11.875,27.265 11.685,27.265 Z"/>
    <path fill="#F3705A" d="M25.08,20.235 L19.19,20.235 C18.62,20.235 18.145,19.76 18.145,19.19 C18.145,18.62 18.62,18.145 19.19,18.145 L25.08,18.145 C25.65,18.145 26.125,18.62 26.125,19.19 C26.125,19.76 25.65,20.235 25.08,20.235 Z"/>
    <path fill="#FFD15C" d="M19.19,20.235 C18.62,20.235 18.145,19.76 18.145,19.19 L18.145,9.785 C18.145,9.215 18.62,8.74 19.19,8.74 C19.76,8.74 20.235,9.215 20.235,9.785 L20.235,19.19 C20.235,19.76 19.76,20.235 19.19,20.235 Z"/>
    <circle cx="19.19" cy="19.19" r="2.945" fill="#415A6B"/>
    <circle cx="19.19" cy="19.19" r="1.52" fill="#344A5E"/>
    <path fill="#415A6B" d="M35.815,12.73 L34.39,3.895 L32.015,6.27 C24.89,-0.855 13.395,-0.855 6.27,6.27 C-0.855,13.395 -0.855,24.89 6.27,32.015 C13.395,39.14 24.89,39.14 32.015,32.015 C36.48,27.55 38.095,21.375 36.955,15.58 L32.965,14.915 C34.485,19.855 33.25,25.46 29.355,29.355 C23.75,34.96 14.535,34.96 8.93,29.355 C3.325,23.75 3.325,14.535 8.93,8.93 C14.535,3.325 23.75,3.325 29.355,8.93 L26.98,11.305 L35.815,12.73 Z"/>
  </g>
</svg>
