<svg xmlns="http://www.w3.org/2000/svg" width="60" height="60" viewBox="0 0 60 60">
  <g fill="none" transform="translate(6 6)">
    <circle cx="24" cy="24" r="24" fill="#F3705A"/>
    <circle cx="24" cy="24" r="19.4" fill="#FFF"/>
    <path fill="#FFD15C" d="M29.2,18.8 C28.9,18.5 28.4,18.5 28.1,18.8 L14,33 C13.7,33.3 13.7,33.8 14,34.1 C14.3,34.4 14.8,34.4 15.1,34.1 L29.3,19.9 C29.5,19.5 29.5,19.1 29.2,18.8 Z"/>
    <path fill="#4EC0AA" d="M31.1,29 L25.5,23.4 L25.5,10.4 C25.5,9.6 24.8,8.9 24,8.9 C23.2,8.9 22.5,9.6 22.5,10.4 L22.5,24 C22.5,24.4 22.7,24.8 22.9,25.1 L28.9,31.1 C29.5,31.7 30.4,31.7 31,31.1 C31.7,30.5 31.7,29.5 31.1,29 Z"/>
    <circle cx="24" cy="24" r="3.3" fill="#415A6B"/>
    <circle cx="24" cy="24" r="1.5" fill="#344A5E"/>
  </g>
</svg>
