<svg xmlns="http://www.w3.org/2000/svg" width="60" height="60" viewBox="0 0 60 60">
  <g fill="none" transform="translate(6 6)">
    <circle cx="24" cy="24" r="20.928" fill="#F3F3F3"/>
    <path fill="#55C0EB" d="M19.008,29.184 C18.432,28.608 18.432,27.744 19.008,27.168 L31.296,14.88 C31.872,14.304 32.736,14.304 33.312,14.88 C33.888,15.456 33.888,16.32 33.312,16.896 L20.928,29.184 C20.448,29.76 19.488,29.76 19.008,29.184 Z"/>
    <circle cx="24" cy="24" r="3.744" fill="#415A6B"/>
    <circle cx="24" cy="24" r="1.536" fill="#344A5E"/>
    <circle cx="24" cy="8.16" r="1.344" fill="#CED6E0"/>
    <circle cx="8.16" cy="24" r="1.344" fill="#CED6E0"/>
    <circle cx="24" cy="39.84" r="1.344" fill="#CED6E0"/>
    <circle cx="39.84" cy="24" r="1.344" fill="#CED6E0"/>
    <g fill="#F3705A">
      <path d="M35.232 12.672L37.248 10.656C29.856 3.264 17.952 3.36 10.56 10.656 5.856 15.36 4.128 21.888 5.472 27.936 5.76 29.376 4.704 30.72 3.264 30.528 2.304 30.432 1.632 29.76 1.44 28.896-.192 21.504 1.824 13.44 7.584 7.68 16.608-1.344 31.2-1.344 40.224 7.68L42.24 5.664 43.008 13.44 35.232 12.672zM40.416 40.32C31.392 49.344 16.8 49.344 7.776 40.32L5.76 42.336 5.088 34.56 12.864 35.328 10.848 37.344C18.24 44.736 30.144 44.64 37.536 37.344 42.24 32.64 43.968 26.112 42.624 20.064 42.336 18.624 43.392 17.376 44.832 17.472 45.792 17.568 46.464 18.24 46.656 19.104 48.192 26.496 46.176 34.56 40.416 40.32z"/>
    </g>
  </g>
</svg>
